HIERARCHY
ROOT Hips
{
	OFFSET 0.000000 97.167313 0.000000
	CHANNELS 6 Xposition Yposition Zposition Xrotation Yrotation Zrotation
	JOINT Spine
	{
		OFFSET 0.000000 13.784798 0.064400
		CHANNELS 3 Xrotation Yrotation Zrotation
		JOINT Spine1
		{
			OFFSET 0.000000 12.037903 0.404700
			CHANNELS 3 Xrotation Yrotation Zrotation
			JOINT Spine2
			{
				OFFSET 0.000000 17.795601 0.420200
				CHANNELS 3 Xrotation Yrotation Zrotation
				JOINT Neck
				{
					OFFSET 0.000000 39.131302 11.954600
					CHANNELS 3 Xrotation Yrotation Zrotation
					JOINT Head
					{
						OFFSET 0.000000 14.456192 15.627699
						CHANNELS 3 Xrotation Yrotation Zrotation
						JOINT HeadTop_End
						{
							OFFSET 0.000000 15.703506 7.603401
							CHANNELS 3 Xrotation Yrotation Zrotation
							End Site
							{
								OFFSET 0.000000 17.447403 0.000000
							}
						}
					}
				}
				JOINT LeftShoulder
				{
					OFFSET 17.399500 24.608795 1.168800
					CHANNELS 3 Xrotation Yrotation Zrotation
					JOINT LeftArm
					{
						OFFSET 18.980635 5.765305 1.818600
						CHANNELS 3 Xrotation Yrotation Zrotation
						JOINT LeftForeArm
						{
							OFFSET 49.290169 0.000000 0.000000
							CHANNELS 3 Xrotation Yrotation Zrotation
							JOINT LeftHand
							{
								OFFSET 31.562012 0.000000 0.000000
								CHANNELS 3 Xrotation Yrotation Zrotation
								JOINT LeftHandThumb1
								{
									OFFSET 6.133995 -4.388519 7.076070
									CHANNELS 3 Xrotation Yrotation Zrotation
									JOINT LeftHandThumb2
									{
										OFFSET 6.037666 -3.485840 3.485847
										CHANNELS 3 Xrotation Yrotation Zrotation
										JOINT LeftHandThumb3
										{
											OFFSET 6.496506 -3.750763 3.750761
											CHANNELS 3 Xrotation Yrotation Zrotation
											JOINT LeftHandThumb4
											{
												OFFSET 5.616882 -3.242905 3.242910
												CHANNELS 3 Xrotation Yrotation Zrotation
												End Site
												{
													OFFSET -1.254608 7.132141 0.375429
												}
											}
										}
									}
								}
								JOINT LeftHandPinky1
								{
									OFFSET 18.920792 -0.453171 -11.426712
									CHANNELS 3 Xrotation Yrotation Zrotation
									JOINT LeftHandPinky2
									{
										OFFSET 4.919586 0.000000 0.000000
										CHANNELS 3 Xrotation Yrotation Zrotation
										JOINT LeftHandPinky3
										{
											OFFSET 5.233047 0.000000 0.000000
											CHANNELS 3 Xrotation Yrotation Zrotation
											JOINT LeftHandPinky4
											{
												OFFSET 5.571716 0.000000 0.000000
												CHANNELS 3 Xrotation Yrotation Zrotation
												End Site
												{
													OFFSET -3.459808 4.342407 -0.466164
												}
											}
										}
									}
								}
								JOINT LeftHandRing1
								{
									OFFSET 22.726120 -0.094986 -6.500475
									CHANNELS 3 Xrotation Yrotation Zrotation
									JOINT LeftHandRing2
									{
										OFFSET 6.408615 0.000000 0.000000
										CHANNELS 3 Xrotation Yrotation Zrotation
										JOINT LeftHandRing3
										{
											OFFSET 6.150223 0.000000 0.000000
											CHANNELS 3 Xrotation Yrotation Zrotation
											JOINT LeftHandRing4
											{
												OFFSET 6.145386 0.000000 0.000000
												CHANNELS 3 Xrotation Yrotation Zrotation
												End Site
												{
													OFFSET -3.671402 4.923981 -0.202372
												}
											}
										}
									}
								}
								JOINT LeftHandMiddle1
								{
									OFFSET 23.373947 0.000000 0.000001
									CHANNELS 3 Xrotation Yrotation Zrotation
									JOINT LeftHandMiddle2
									{
										OFFSET 6.996567 0.000000 0.000000
										CHANNELS 3 Xrotation Yrotation Zrotation
										JOINT LeftHandMiddle3
										{
											OFFSET 7.015945 0.000000 0.000000
											CHANNELS 3 Xrotation Yrotation Zrotation
											JOINT LeftHandMiddle4
											{
												OFFSET 7.721573 0.000000 0.000000
												CHANNELS 3 Xrotation Yrotation Zrotation
												End Site
												{
													OFFSET -4.651108 6.158463 0.251582
												}
											}
										}
									}
								}
								JOINT LeftHandIndex1
								{
									OFFSET 21.310577 -0.490082 6.209344
									CHANNELS 3 Xrotation Yrotation Zrotation
									JOINT LeftHandIndex2
									{
										OFFSET 7.536453 0.000000 0.000000
										CHANNELS 3 Xrotation Yrotation Zrotation
										JOINT LeftHandIndex3
										{
											OFFSET 7.512344 0.000000 0.000000
											CHANNELS 3 Xrotation Yrotation Zrotation
											JOINT LeftHandIndex4
											{
												OFFSET 10.212402 0.000000 0.000001
												CHANNELS 3 Xrotation Yrotation Zrotation
												End Site
												{
													OFFSET -5.180801 8.690506 1.388433
												}
											}
										}
									}
								}
							}
						}
					}
				}
				JOINT RightShoulder
				{
					OFFSET -17.399500 24.608795 1.168800
					CHANNELS 3 Xrotation Yrotation Zrotation
					JOINT RightArm
					{
						OFFSET -18.980635 5.765305 1.818600
						CHANNELS 3 Xrotation Yrotation Zrotation
						JOINT RightForeArm
						{
							OFFSET -49.290169 0.000000 0.000000
							CHANNELS 3 Xrotation Yrotation Zrotation
							JOINT RightHand
							{
								OFFSET -31.562012 0.000000 0.000000
								CHANNELS 3 Xrotation Yrotation Zrotation
								JOINT RightHandThumb1
								{
									OFFSET -6.133995 -4.388519 7.076070
									CHANNELS 3 Xrotation Yrotation Zrotation
									JOINT RightHandThumb2
									{
										OFFSET -6.037666 -3.485840 3.485847
										CHANNELS 3 Xrotation Yrotation Zrotation
										JOINT RightHandThumb3
										{
											OFFSET -6.496506 -3.750763 3.750761
											CHANNELS 3 Xrotation Yrotation Zrotation
											JOINT RightHandThumb4
											{
												OFFSET -5.616882 -3.242905 3.242910
												CHANNELS 3 Xrotation Yrotation Zrotation
												End Site
												{
													OFFSET 1.254608 7.132141 0.375429
												}
											}
										}
									}
								}
								JOINT RightHandIndex1
								{
									OFFSET -21.310577 -0.490082 6.209344
									CHANNELS 3 Xrotation Yrotation Zrotation
									JOINT RightHandIndex2
									{
										OFFSET -7.536453 0.000000 0.000000
										CHANNELS 3 Xrotation Yrotation Zrotation
										JOINT RightHandIndex3
										{
											OFFSET -7.512344 0.000000 0.000000
											CHANNELS 3 Xrotation Yrotation Zrotation
											JOINT RightHandIndex4
											{
												OFFSET -10.212402 0.000000 0.000001
												CHANNELS 3 Xrotation Yrotation Zrotation
												End Site
												{
													OFFSET 5.180801 8.690506 1.388433
												}
											}
										}
									}
								}
								JOINT RightHandMiddle1
								{
									OFFSET -23.373947 0.000000 0.000001
									CHANNELS 3 Xrotation Yrotation Zrotation
									JOINT RightHandMiddle2
									{
										OFFSET -6.996567 0.000000 0.000000
										CHANNELS 3 Xrotation Yrotation Zrotation
										JOINT RightHandMiddle3
										{
											OFFSET -7.015945 0.000000 0.000000
											CHANNELS 3 Xrotation Yrotation Zrotation
											JOINT RightHandMiddle4
											{
												OFFSET -7.721573 0.000000 0.000000
												CHANNELS 3 Xrotation Yrotation Zrotation
												End Site
												{
													OFFSET 4.651108 6.158463 0.251582
												}
											}
										}
									}
								}
								JOINT RightHandRing1
								{
									OFFSET -22.726120 -0.094986 -6.500475
									CHANNELS 3 Xrotation Yrotation Zrotation
									JOINT RightHandRing2
									{
										OFFSET -6.408615 0.000000 0.000000
										CHANNELS 3 Xrotation Yrotation Zrotation
										JOINT RightHandRing3
										{
											OFFSET -6.150223 0.000000 0.000000
											CHANNELS 3 Xrotation Yrotation Zrotation
											JOINT RightHandRing4
											{
												OFFSET -6.145386 0.000000 0.000000
												CHANNELS 3 Xrotation Yrotation Zrotation
												End Site
												{
													OFFSET 3.671402 4.923981 -0.202372
												}
											}
										}
									}
								}
								JOINT RightHandPinky1
								{
									OFFSET -18.920792 -0.453171 -11.426712
									CHANNELS 3 Xrotation Yrotation Zrotation
									JOINT RightHandPinky2
									{
										OFFSET -4.919586 0.000000 0.000000
										CHANNELS 3 Xrotation Yrotation Zrotation
										JOINT RightHandPinky3
										{
											OFFSET -5.233047 0.000000 0.000000
											CHANNELS 3 Xrotation Yrotation Zrotation
											JOINT RightHandPinky4
											{
												OFFSET -5.571716 0.000000 0.000000
												CHANNELS 3 Xrotation Yrotation Zrotation
												End Site
												{
													OFFSET 3.459808 4.342407 -0.466164
												}
											}
										}
									}
								}
							}
						}
					}
				}
			}
		}
	}
	JOINT LeftUpLeg
	{
		OFFSET 19.899099 -7.885101 -3.429500
		CHANNELS 3 Xrotation Yrotation Zrotation
		JOINT LeftLeg
		{
			OFFSET 1.745560 -36.997807 10.304700
			CHANNELS 3 Xrotation Yrotation Zrotation
			JOINT LeftFoot
			{
				OFFSET -1.745558 -29.803308 -13.615400
				CHANNELS 3 Xrotation Yrotation Zrotation
				JOINT LeftToeBase
				{
					OFFSET 1.181900 -18.539904 15.226099
					CHANNELS 3 Xrotation Yrotation Zrotation
					JOINT LeftToe_End
					{
						OFFSET -0.863701 1.402801 16.534700
						CHANNELS 3 Xrotation Yrotation Zrotation
						End Site
						{
							OFFSET 0.000000 16.616566 0.000000
						}
					}
				}
			}
		}
	}
	JOINT RightUpLeg
	{
		OFFSET -19.899099 -7.885101 -3.429500
		CHANNELS 3 Xrotation Yrotation Zrotation
		JOINT RightLeg
		{
			OFFSET -1.745560 -36.997807 10.304700
			CHANNELS 3 Xrotation Yrotation Zrotation
			JOINT RightFoot
			{
				OFFSET 1.745558 -29.803308 -13.615400
				CHANNELS 3 Xrotation Yrotation Zrotation
				JOINT RightToeBase
				{
					OFFSET -1.181900 -18.539904 15.226099
					CHANNELS 3 Xrotation Yrotation Zrotation
					JOINT RightToe_End
					{
						OFFSET 0.863701 1.402801 16.534700
						CHANNELS 3 Xrotation Yrotation Zrotation
						End Site
						{
							OFFSET 0.000000 16.616566 0.000000
						}
					}
				}
			}
		}
	}
}
MOTION
Frames: 4
Frame Time: 0.033333
2.721390 82.126015 4.595201 5.323189 -6.999630 -1.566555 9.051934 3.487863 5.436319 6.405669 1.291761 1.045180 6.410935 1.245664 1.103043 2.152487 -0.633276 -1.418505 -3.420057 -2.665821 0.173288 -0.000002 -0.000000 -0.000000 1.698366 -9.936640 -14.932755 -24.903672 2.144192 -69.555027 0.000001 -31.131531 -0.000022 13.757350 3.371940 3.433470 -6.000704 -6.126806 4.616772 7.611111 24.884932 2.404778 -4.383227 25.960683 19.454344 -0.000001 -0.000001 -0.000003 0.820395 5.237401 -29.401512 0.162588 1.371988 -13.515860 0.462447 2.283220 -22.896886 -0.000000 0.000001 0.000001 0.497478 4.571138 -22.149159 0.640161 2.664771 -27.011993 0.462456 2.283227 -22.896857 -0.000001 -0.000002 0.000003 0.227871 3.736452 -13.564118 0.647318 2.678761 -27.165599 0.040195 0.685843 -6.708297 -0.000001 -0.000002 0.000001 0.627388 4.865712 -25.300096 0.596703 2.577850 -26.061835 0.209883 1.555555 -15.366881 -0.000001 0.000003 -0.000001 4.824513 17.895009 5.451020 -14.653418 0.368920 66.860763 0.000012 22.624409 0.000008 11.467800 9.160447 1.301254 -7.540280 -3.885175 -4.751879 7.955465 -28.077779 -3.121235 -4.007005 -18.468382 -17.389983 -0.000001 0.000001 0.000001 0.108129 -1.144710 14.286809 0.320781 -1.700148 21.368271 0.152910 -1.184793 14.707189 0.000001 -0.000001 -0.000001 0.522769 -4.330169 26.059596 0.321085 -1.700897 21.378296 0.457588 -2.014965 25.587098 0.000001 0.000002 -0.000004 2.056204 -6.618938 34.808556 0.321775 -1.702677 21.401699 0.457617 -2.014996 25.587646 -0.000003 0.000005 -0.000003 1.466763 -7.621046 42.125113 0.321084 -1.700898 21.378299 0.457588 -2.014964 25.587108 0.000003 0.000003 0.000003 -34.750473 6.856362 23.427247 58.284934 6.189741 -3.297839 9.324086 6.658625 -14.392196 -33.171114 0.039835 -2.102374 -0.000000 -0.000001 0.000000 -28.856388 -5.203549 2.940332 44.794983 -7.175893 -1.223384 -23.015163 -0.202985 1.162532 4.202951 0.000194 -0.003787 0.000000 -0.000000 0.000000 
2.714755 82.139343 4.398215 5.222261 -7.182686 -1.623317 8.769927 3.524254 5.436108 6.252325 1.401735 1.045183 6.258350 1.349541 1.070492 2.108611 -0.650969 -1.495238 -2.830732 -2.739578 0.332860 -0.000001 0.000000 -0.000001 1.652614 -9.951090 -14.950500 -24.476871 3.421318 -69.909520 0.000016 -31.073707 0.000029 15.072380 3.239188 3.332283 -6.000703 -6.126807 4.616768 7.611111 24.884939 2.404784 -4.383226 25.960680 19.454341 -0.000001 0.000001 0.000001 0.823502 5.242885 -29.463274 0.166132 1.386641 -13.663140 0.466050 2.291740 -22.987179 -0.000000 -0.000001 -0.000002 0.500001 4.577307 -22.214239 0.647413 2.678921 -27.167533 0.466245 2.292189 -22.991938 -0.000003 -0.000001 0.000005 0.229534 3.743292 -13.632824 0.655020 2.693684 -27.329791 0.041396 0.696020 -6.808414 -0.000001 -0.000001 0.000008 0.630585 4.872439 -25.373024 0.604528 2.593779 -26.235446 0.212758 1.565991 -15.472612 -0.000001 0.000000 -0.000002 4.923139 17.927478 4.967634 -14.012084 -0.266524 67.417512 -0.000002 22.682700 0.000007 11.420885 9.274191 1.279953 -7.540278 -3.885180 -4.751879 7.955466 -28.077781 -3.121235 -4.007010 -18.468394 -17.389988 -0.000000 0.000000 -0.000000 0.107380 -1.147778 14.324899 0.324803 -1.710392 21.503452 0.155558 -1.194858 14.834956 0.000004 -0.000001 0.000001 0.524076 -4.332798 26.095656 0.324888 -1.710583 21.506138 0.461865 -2.023844 25.708250 -0.000000 0.000003 -0.000003 2.058806 -6.620522 34.842824 0.325397 -1.711842 21.522843 0.461661 -2.023433 25.702516 -0.000000 0.000000 -0.000002 1.469794 -7.622873 42.157645 0.324490 -1.709594 21.493152 0.461441 -2.022966 25.696230 -0.000000 -0.000001 0.000004 -34.779644 6.801023 23.507324 58.309701 6.178890 -3.301682 9.475879 6.798790 -14.463064 -33.171155 0.039844 -2.102431 -0.000000 -0.000000 0.000000 -28.967826 -5.252968 3.060637 44.701553 -7.047309 -1.236017 -22.713661 -0.143357 1.014168 4.201913 0.000185 -0.003811 -0.000000 -0.000002 0.000000 
2.700850 82.156754 4.171227 4.965778 -7.373736 -1.695459 8.594694 3.568029 5.446182 6.108069 1.524816 1.045181 6.115671 1.465752 1.034075 1.987236 -0.670532 -1.575280 -2.416015 -2.823975 0.494070 0.000001 -0.000000 0.000000 1.591932 -9.965716 -15.002550 -23.536176 4.588343 -70.161650 0.000005 -31.305410 -0.000003 16.108998 3.010879 3.297915 -6.000698 -6.126806 4.616766 7.611112 24.884937 2.404784 -4.383226 25.960678 19.454342 0.000001 -0.000002 -0.000001 0.832633 5.258914 -29.644008 0.176733 1.429538 -14.094407 0.476689 2.316645 -23.251825 0.000002 0.000001 -0.000007 0.507399 4.595294 -22.404638 0.668856 2.720247 -27.622620 0.477447 2.318391 -23.270419 -0.000000 -0.000001 -0.000000 0.234423 3.763244 -13.833691 0.677764 2.737209 -27.809971 0.045040 0.725826 -7.101337 0.000001 -0.000001 0.000004 0.639971 4.892067 -25.586056 0.627689 2.640209 -26.742733 0.221292 1.596483 -15.781869 -0.000001 0.000001 0.000001 4.931639 17.979939 4.692802 -13.264717 -0.939956 67.755408 0.000009 22.848535 0.000004 11.395357 9.278301 1.168037 -7.540283 -3.885178 -4.751879 7.955463 -28.077782 -3.121235 -4.007015 -18.468384 -17.389986 -0.000002 -0.000001 0.000001 0.105196 -1.156731 14.435946 0.336702 -1.740251 21.898491 0.163445 -1.224239 15.208676 -0.000001 -0.000001 -0.000001 0.527855 -4.340488 26.201048 0.336139 -1.738863 21.880007 0.474455 -2.049779 26.062755 0.000000 -0.000004 -0.000004 2.066399 -6.625123 34.943036 0.336061 -1.738652 21.877318 0.473617 -2.048062 26.038985 -0.000001 0.000004 -0.000005 1.478670 -7.628223 42.252800 0.334613 -1.735030 21.829522 0.472796 -2.046387 26.016023 0.000002 0.000000 0.000004 -34.669019 6.765068 23.612130 58.340942 6.164834 -3.306953 9.632244 6.919935 -14.529971 -33.171060 0.039833 -2.102249 -0.000000 0.000001 0.000001 -28.944364 -5.296436 3.192443 44.623149 -6.920785 -1.249407 -22.407996 -0.081741 0.854810 4.200198 0.000203 -0.003781 0.000000 -0.000002 0.000000 
2.680471 82.175743 3.920809 4.596804 -7.562808 -1.780029 8.420250 3.609903 5.463009 5.962582 1.648328 1.045181 5.971718 1.581846 0.997695 1.799136 -0.691206 -1.657655 -2.057002 -2.902884 0.663497 -0.000001 -0.000000 0.000000 1.540450 -9.988353 -15.083216 -22.237267 5.638608 -70.319994 0.000001 -31.663326 -0.000013 16.897724 2.731681 3.322007 -6.000704 -6.126806 4.616770 7.611108 24.884934 2.404782 -4.383223 25.960678 19.454348 0.000001 -0.000001 -0.000003 0.847550 5.284835 -29.936890 0.194600 1.498910 -14.793990 0.494211 2.356963 -23.681437 0.000001 0.000001 -0.000000 0.519529 4.624379 -22.712916 0.704300 2.786841 -28.360298 0.495886 2.360764 -23.722099 0.000001 -0.000001 0.000003 0.242480 3.795516 -14.158637 0.715377 2.807266 -28.587682 0.051251 0.774075 -7.576143 0.000001 0.000002 0.000009 0.655297 4.923724 -25.930374 0.666047 2.714902 -27.563534 0.235462 1.645778 -16.282724 -0.000001 -0.000002 -0.000001 4.883329 18.048717 4.563161 -12.360867 -1.649022 67.971577 -0.000000 23.107568 -0.000018 11.379903 9.196213 0.989642 -7.540280 -3.885179 -4.751877 7.955459 -28.077779 -3.121235 -4.007015 -18.468386 -17.389991 -0.000001 0.000003 0.000004 0.101692 -1.171180 14.615536 0.356369 -1.788414 22.537654 0.176630 -1.271743 15.813835 0.000003 -0.000003 -0.000001 0.534009 -4.352912 26.371564 0.354747 -1.784483 22.485478 0.495225 -2.091694 26.637278 0.000003 0.000002 -0.000004 2.078729 -6.632549 35.105342 0.353711 -1.781955 22.451868 0.493308 -2.087848 26.584763 -0.000001 0.000001 -0.000005 1.493086 -7.636820 42.407101 0.351319 -1.776181 22.375080 0.491504 -2.084247 26.535111 -0.000000 0.000002 0.000004 -34.465268 6.747792 23.739332 58.378064 6.148801 -3.313031 9.793412 7.020602 -14.586024 -33.170001 0.039735 -2.100083 -0.000000 -0.000001 0.000001 -28.823350 -5.335108 3.332360 44.558276 -6.802686 -1.262691 -22.102291 -0.020359 0.689559 4.198655 0.000197 -0.003794 -0.000000 -0.000000 -0.000000 
